<svg xmlns="http://www.w3.org/2000/svg" xmlns:xlink="http://www.w3.org/1999/xlink" version="1.1" id="Layer_1" x="0px" y="0px" width="100px" height="100px" viewBox="0 0 100 100" enable-background="new 0 0 100 100" xml:space="preserve">
<g id="Layer_2">
</g>
<path d="M86.964,93c-6.383,0-11.571-5.191-11.571-11.574c0-6.382,5.188-11.572,11.571-11.572c6.384,0,11.575,5.19,11.575,11.572  C98.539,87.809,93.348,93,86.964,93L86.964,93z M86.964,74.561c-3.784,0-6.864,3.08-6.864,6.865c0,3.786,3.08,6.866,6.864,6.866  c3.787,0,6.866-3.08,6.866-6.866C93.83,77.641,90.751,74.561,86.964,74.561L86.964,74.561z"/>
<path d="M71.621,83.445c-1.114,0-2.02-0.904-2.02-2.021c0-9.573,7.789-17.36,17.361-17.36c4.639,0,8.999,1.806,12.278,5.084  c0.788,0.791,0.788,2.066,0,2.855c-0.788,0.788-2.068,0.788-2.854,0c-2.517-2.518-5.863-3.902-9.424-3.902  c-7.349,0-13.324,5.978-13.324,13.323C73.641,82.541,72.736,83.445,71.621,83.445L71.621,83.445z"/>
<path d="M39.223,21.594c-0.331-0.701-0.544-1.482-0.642-2.338c-0.286-2.501,0.369-4.757,1.963-6.763  c1.594-2.006,3.643-3.152,6.148-3.439c2.135-0.245,4.087,0.195,5.855,1.323c1.768,1.13,3.038,2.638,3.814,4.527l-2.381,0.272  c0.08,0.176,0.193,0.906,0.34,2.188c0.188,1.646-0.239,3.148-1.291,4.507c-1.051,1.358-2.434,2.133-4.14,2.327  c-2.075,0.238-3.858-0.454-5.342-2.076c-0.295-0.4-0.516-0.714-0.664-0.946L39.223,21.594z"/>
<path d="M77.717,36.894c-3.625,0.167-6.499,2.521-6.499,5.408c0,2.889,2.874,5.242,6.499,5.41V36.894z"/>
<path d="M76.92,58.639c-0.361-1.207-5.221-11.641-6.701-14.81c-0.33-0.711-1.043-1.166-1.828-1.166H64.85  c0.715-0.513,1.187-1.347,1.187-2.295c-0.002-1.561-1.267-2.825-2.825-2.825h-0.003l-10.063,0.005l-3.479-9.579  c-0.081-0.222-0.192-0.42-0.316-0.608c-0.31-0.628-0.761-1.167-1.413-1.522c-1.481-0.809-3.694-1.046-5.115-0.64  c-1.413,0.403-3.281,1.211-4.089,3.887L34.3,47.894c-0.17,0.788-0.094,1.986,0.243,2.911c0.54,1.481,2.22,3.365,4.245,3.635  l12.011,1.074c-0.452-0.006-1.054-0.008-1.809,0.004H31.583V38.951v-0.292v-6.631H0v6.631v0.292v16.691h17.286  c-0.95,0.312-1.657,1.215-1.625,2.2c0.033,1.04,1.403,3.181,2.441,4.656C10.604,66.854,4.46,79.004,4.46,79.004  s-0.164,0.373-0.151,0.807c0.034,1.115,0.903,2.021,2.018,2.021h4.077C10.618,88.023,15.711,93,21.957,93s11.339-4.977,11.554-11.17  H59.98c0.183,0,4.518-0.048,7.307-4.227c0.662-0.898,9.097-12.41,9.658-14.664C77.436,60.982,77.43,60.34,76.92,58.639z   M3.828,35.856h23.927v2.803H3.828V35.856z M3.828,42.487h10.394v3.559h3.29v-3.559h10.243v9.328H3.828V42.487z M21.957,88.292  c-3.649,0-6.634-2.864-6.845-6.462h13.69C28.591,85.428,25.606,88.292,21.957,88.292z M37.157,76.193  c-0.181,0.488-0.643,0.791-1.136,0.791c-0.14,0-0.283-0.024-0.422-0.074c-0.626-0.233-0.946-0.932-0.713-1.559  c0.015-0.043,1.694-4.777-0.938-8.58c-1.648-2.381-6.542-2.379-8.287-2.179c-0.664,0.076-1.266-0.397-1.342-1.063  c-0.077-0.665,0.399-1.266,1.064-1.342c0.315-0.037,7.752-0.846,10.556,3.205C39.303,70.249,37.247,75.952,37.157,76.193z   M73.048,61.889c-0.506,1.379-6.239,9.551-9.042,13.362c-0.021,0.026-0.039,0.056-0.059,0.083c-1.562,2.365-3.897,2.456-3.969,2.459  h-9.603c-2.913-2.117-6.135-5.637-5.539-10.633c0.673-5.654,7.455-8.789,7.808-10.365c0.16-0.729-0.211-1.031-0.535-1.163  l6.574,0.588l-5.367,15.921c-0.539,2.15,1.145,3.901,2.152,4.237c1.801,0.601,4.711,0.337,5.787-4.237  c0.23-0.973,5.721-17.768,5.721-17.768c0.809-2.624-1.412-5.586-4.436-6.021l-15.573-2.564l0.386-1.807  c-0.043-0.057-4.411-8.855-4.411-8.855c-0.296-0.6-0.05-1.327,0.55-1.623c0.599-0.298,1.326-0.051,1.622,0.548l4.076,8.229  c0.328,0.631,1.26,0.923,1.973,0.923l9.812-0.005c-0.404,0.369-0.66,0.895-0.66,1.485c0,1.114,0.904,2.02,2.019,2.02h4.771  c2.785,5.979,5.688,12.318,5.946,13.097C73.332,60.736,73.332,60.736,73.048,61.889z"/>
</svg>